<?xml version="1.0" standalone="no"?>
<!DOCTYPE svg PUBLIC "-//W3C//DTD SVG 20010904//EN"
 "http://www.w3.org/TR/2001/REC-SVG-20010904/DTD/svg10.dtd">
<svg version="1.0" xmlns="http://www.w3.org/2000/svg"
 width="200.000000pt" height="200.000000pt" viewBox="0 0 200.000000 200.000000"
 preserveAspectRatio="xMidYMid meet">
<metadata>
Created by potrace 1.11, written by Peter Selinger 2001-2013
</metadata>
<g transform="translate(0.000000,200.000000) scale(0.100000,-0.100000)"
fill="#000000" stroke="none">
<path d="M250 1990 c-100 -30 -182 -99 -223 -188 l-22 -47 0 -755 0 -755 29
-57 c34 -68 92 -124 161 -158 l50 -25 755 0 755 0 59 30 c65 33 124 93 158
163 l23 47 0 755 0 755 -28 55 c-33 64 -67 103 -121 137 -83 53 -75 53 -851
52 -396 -1 -731 -4 -745 -9z"/>
</g>
</svg>
